<svg width="375" height="204" viewBox="0 0 375 204" fill="none" xmlns="http://www.w3.org/2000/svg">
<path d="M0 0H375V174C375 190.569 361.569 204 345 204H30C13.4315 204 0 190.569 0 174V0Z" fill="#F9BE7D"/>
<line x1="358.773" y1="83.5" x2="358.773" y2="89.7727" stroke="#6488E5" stroke-linecap="round"/>
<line x1="366.5" y1="90.7727" x2="360.227" y2="90.7727" stroke="#6488E5" stroke-linecap="round"/>
<line x1="357.773" y1="90.7727" x2="351.5" y2="90.7727" stroke="#6488E5" stroke-linecap="round"/>
<line x1="358.773" y1="92.2273" x2="358.773" y2="98.5" stroke="#6488E5" stroke-linecap="round"/>
<line x1="134.136" y1="51.5" x2="134.136" y2="59.1364" stroke="#6488E5" stroke-linecap="round"/>
<line x1="143.5" y1="60.1364" x2="135.864" y2="60.1364" stroke="#6488E5" stroke-linecap="round"/>
<line x1="133.136" y1="60.1364" x2="125.5" y2="60.1364" stroke="#6488E5" stroke-linecap="round"/>
<line x1="134.136" y1="61.8636" x2="134.136" y2="69.5" stroke="#6488E5" stroke-linecap="round"/>
<line x1="34.8635" y1="105.5" x2="34.8635" y2="115.864" stroke="#6488E5" stroke-linecap="round"/>
<line x1="47.5" y1="116.864" x2="37.1364" y2="116.864" stroke="#6488E5" stroke-linecap="round"/>
<line x1="33.8635" y1="116.864" x2="23.4999" y2="116.864" stroke="#6488E5" stroke-linecap="round"/>
<line x1="34.8635" y1="119.136" x2="34.8635" y2="129.5" stroke="#6488E5" stroke-linecap="round"/>
<path d="M385 69.9461C374.546 72.2432 349.194 75.5089 334.823 66.1177C319.591 56.1638 320.487 30.8961 325.863 16.3481C330.505 3.78623 350.951 -66.346 289.126 -27.296C276.94 -21.7831 278.424 -7.38816 276.582 1.03439C270.608 28.3439 231.602 73.0089 123.363 33.1932C102.754 24.005 59.7456 34.7246 74.9779 69.9461C87.1637 98.1234 79.458 107.72 74.9779 115.122C70.4978 122.523 45.2301 141.461 -20 158" stroke="#6488E5" stroke-width="1.5"/>
<g clip-path="url(#clip0_455_5)">
<path d="M284.409 140.305C284.409 138.2 284.156 136.369 283.842 134.302C283.244 130.366 282.669 126.399 281.687 122.532C280.629 118.389 279.663 114.063 278.022 110.104C277.493 108.825 277.11 107.554 276.765 106.206C276.619 105.639 276.642 105.295 276.159 104.919C276.535 106.007 276.941 106.864 277.562 107.822C278.643 109.483 279.211 111.344 280.292 113.014C282.577 116.544 284.555 120.319 287.261 123.558C288.802 125.404 289.914 127.349 291.148 129.363C291.907 130.596 292.497 132.296 293.548 133.306C293.456 131.522 294.176 129.807 294.437 128.023C294.951 124.584 295.625 121.131 296.262 117.692C296.906 114.216 297.757 110.67 298.087 107.155C298.248 105.432 298.738 103.717 298.999 102.002C299.152 100.976 299.574 100.041 299.451 98.9924C299.467 101.818 299.666 104.475 299.965 107.286C300.402 111.359 301.33 115.602 301.284 119.699C301.253 122.517 301.744 125.205 301.728 128.007C301.721 129.523 301.399 131.53 301.82 132.985C302.326 132.824 302.748 131.936 303.2 131.53C303.829 130.955 304.281 130.442 304.849 129.868C305.853 128.857 306.972 128.046 307.969 126.996C309.019 125.901 310.254 124.906 311.373 123.88C313.988 121.468 316.955 119.607 319.745 117.463C321.631 116.015 323.057 113.841 325.066 112.516C325.595 113.205 322.038 117.516 321.455 118.328C319.485 121.1 317.284 123.849 315.099 126.453C313.297 128.605 311.473 130.687 309.694 132.855C308.981 133.72 308.398 134.593 307.54 135.313C306.819 135.918 306.19 136.316 305.562 137.043C306.328 137.411 308.038 137.097 308.743 137.013C310.192 136.837 311.595 136.668 313.067 136.645C314.478 136.622 315.897 136.737 317.307 136.683C319.324 136.607 321.279 136.201 323.303 136.178C326.032 136.147 328.761 136.216 331.491 136.193C332.948 136.178 334.075 136.346 335.501 136.546C336.321 136.66 337.264 136.538 337.992 136.974C337.762 137.664 335.524 138.284 334.903 138.498C333.63 138.942 332.258 139.118 330.939 139.379C327.289 140.114 323.579 140.55 319.922 141.217C318.258 141.515 316.556 141.661 314.915 142.09C313.527 142.457 312.247 143.085 310.867 143.491C308.812 144.088 306.666 144.54 304.596 144.938C308.191 147.419 311.373 150.352 314.463 153.461C318.58 157.612 323.425 161.264 327.098 165.821C324.851 165.851 323.188 164.871 321.156 164.09C317.514 162.689 313.796 161.456 310.146 160.07C306.804 158.799 303.768 156.517 300.847 154.495C300.095 153.974 299.697 153.186 298.991 152.657C298.562 152.343 298.064 152.313 297.688 151.853C297.304 152.657 297.742 153.859 297.857 154.717C298.018 155.988 298.117 157.244 298.102 158.523C298.079 162.283 297.887 166.119 298.125 169.872C298.324 173.103 298.554 176.273 298.539 179.52C298.531 180.837 298.938 182.752 298.447 183.985C297.266 183.602 296.568 178.395 296.269 177.238C295.165 172.95 294.728 168.585 293.755 164.297C293.18 161.755 292.674 159.197 292.045 156.662C291.861 155.912 291.478 155.123 291.34 154.373C291.225 153.775 291.317 153.216 291.225 152.611C290.312 152.428 289.362 153.408 288.672 153.913C287.384 154.847 285.942 155.682 284.708 156.7C282.385 158.615 280.092 160.499 277.578 162.176C276.236 163.072 274.787 163.776 273.445 164.664C272.372 165.369 271.444 166.158 270.279 166.724C268.999 167.345 267.504 167.827 266.315 168.6C267.059 168.501 267.665 167.214 268.063 166.671C269.129 165.223 270.302 163.883 271.437 162.49C273.2 160.307 275.308 158.416 277.041 156.226C279.625 152.948 282.592 149.87 285.705 147.098C275.899 147.756 266.66 144.18 257 143.414C257.744 142.151 261.309 141.944 262.543 141.676C264.789 141.186 266.875 140.459 269.167 140.298C271.237 140.152 273.192 139.854 275.278 139.854C278.475 139.854 281.672 139.854 284.409 140.305Z" fill="#6488E5"/>
</g>
<defs>
<clipPath id="clip0_455_5">
<rect width="81" height="85" fill="white" transform="translate(257 99)"/>
</clipPath>
</defs>
</svg>
