<svg width="375" height="204" viewBox="0 0 375 204" fill="none" xmlns="http://www.w3.org/2000/svg">
<path d="M0 0H375V174C375 190.569 361.569 204 345 204H30C13.4315 204 0 190.569 0 174V0Z" fill="#E56372"/>
<path d="M478 79.6894C453.2 100.927 413.667 91.8161 397 84.6056C342 39.3766 223.4 -29.2536 189 58.0581C154.6 145.37 85 84.6056 54 53.142C32 41 17.6 45.4726 -12 89.5218" stroke="#F9BE7D" stroke-width="1.5"/>
<line x1="160.773" y1="66.5" x2="160.773" y2="72.7727" stroke="#F9BE7D" stroke-linecap="round"/>
<line x1="168.5" y1="73.7727" x2="162.227" y2="73.7727" stroke="#F9BE7D" stroke-linecap="round"/>
<line x1="159.773" y1="73.7727" x2="153.5" y2="73.7727" stroke="#F9BE7D" stroke-linecap="round"/>
<line x1="160.773" y1="75.2273" x2="160.773" y2="81.5" stroke="#F9BE7D" stroke-linecap="round"/>
<line x1="18.1364" y1="74.5" x2="18.1364" y2="82.1364" stroke="#F9BE7D" stroke-linecap="round"/>
<line x1="27.5" y1="83.1364" x2="19.8636" y2="83.1364" stroke="#F9BE7D" stroke-linecap="round"/>
<line x1="17.1364" y1="83.1364" x2="9.49999" y2="83.1364" stroke="#F9BE7D" stroke-linecap="round"/>
<line x1="18.1364" y1="84.8636" x2="18.1364" y2="92.5" stroke="#F9BE7D" stroke-linecap="round"/>
<line x1="344.864" y1="63.5" x2="344.864" y2="73.8636" stroke="#F9BE7D" stroke-linecap="round"/>
<line x1="357.5" y1="74.8636" x2="347.136" y2="74.8636" stroke="#F9BE7D" stroke-linecap="round"/>
<line x1="343.864" y1="74.8636" x2="333.5" y2="74.8636" stroke="#F9BE7D" stroke-linecap="round"/>
<line x1="344.864" y1="77.1364" x2="344.864" y2="87.5" stroke="#F9BE7D" stroke-linecap="round"/>
<g clip-path="url(#clip0_455_2)">
<path d="M280.417 125.17C280.74 125.214 280.871 125.105 280.806 124.844C280.029 124.59 279.033 124.75 278.213 124.75C276.866 124.75 275.511 124.699 274.171 124.743C272.692 124.793 267.442 126.127 267.515 128.244C267.559 129.571 269.375 129.325 270.342 129.455C271.996 129.68 273.629 130.021 275.336 129.702C277.671 129.259 280.337 128.948 282.006 127.164C282.49 126.649 283.427 125.895 283.332 125.163C283.266 124.685 282.402 123.858 282.124 123.51C280.937 122.009 279.707 121.437 277.876 120.994C276.097 120.567 274.691 120.081 272.773 120.146C271.462 120.19 269.726 120.726 268.657 121.495C267.486 122.336 266.146 123.691 265.26 124.779C264.271 125.99 263.89 127.44 263.905 128.948C263.92 130.557 263.48 131.702 263.48 133.334C263.48 135.842 263.407 138.293 263.81 140.721C263.956 141.599 264.007 142.353 264.234 143.208C264.418 143.911 264.22 144.6 264.322 145.311C264.381 145.724 264.593 145.927 264.659 146.224C264.784 146.739 264.637 147.21 264.732 147.725C264.82 148.232 265.091 148.559 265.201 149.052C265.348 149.682 265.179 150.523 265.179 151.183C265.179 152.713 265.15 154.25 265.179 155.787C265.23 158.426 263.612 155.874 262.235 156.28C261.423 156.519 260.207 157.193 259.555 157.766C259.013 158.244 258.662 158.89 258.003 159.252C255.931 160.39 254.532 157.86 254.159 156.135C254.019 155.489 253.997 154.757 253.851 154.098C253.727 153.525 253.573 152.981 253.426 152.416C253.133 151.299 253.002 150.19 252.789 149.066C252.255 146.202 251.603 143.6 251.625 140.671C251.64 138.242 251.003 135.915 250.79 133.566C250.71 132.667 250.343 131.985 250.358 131.05C250.373 130.18 250.483 129.187 250.373 128.324C250.116 126.417 248.169 125.598 246.47 125.178C244.537 124.699 242.669 124.757 240.685 124.757C239.125 124.757 237.339 124.46 235.94 125.272C234.146 126.316 233.37 128.143 235.537 129.397C237.47 130.521 240.282 129.339 242.296 128.853C243.929 128.462 245.628 127.998 246.975 126.961C247.81 126.323 247.949 125.388 248.235 124.438C248.645 123.061 248.41 122.531 247.92 121.306C245.921 116.347 238.232 114.216 233.934 117.616C232.718 118.58 231.371 119.588 230.463 120.835C229.064 122.756 227.248 125.083 226.706 127.403C225.791 131.311 225.659 135.559 225.769 139.547C225.886 143.6 227.329 147.413 228.749 151.183C230.272 155.199 232.257 158.955 234.995 162.29C237.053 164.798 239.396 167.039 241.468 169.54C244.171 172.802 248.901 174.724 252.987 175.586C260.383 177.152 267.683 175.992 274.413 172.563C276.5 171.497 278.506 170.308 280.366 168.88C284.189 165.958 286.803 162.507 288.97 158.259C291.885 152.553 293.928 146.137 294.865 139.793C295.853 133.152 294.916 126.294 293.056 119.871C292.353 117.442 291.262 114.999 289.666 113.005C287.74 110.605 284.994 109.394 282.409 107.836C276.331 104.175 268.701 103.515 261.686 103.754C258.911 103.848 256.084 104.523 253.382 105.146C251.684 105.537 249.933 105.711 248.3 106.393C246.704 107.06 245.027 107.683 243.475 108.466C242.75 108.829 242.157 109.481 241.41 109.786C240.539 110.148 239.887 110.069 238.906 110.061" stroke="#F9BE7D" stroke-width="2" stroke-miterlimit="10"/>
</g>
<defs>
<clipPath id="clip0_455_2">
<rect width="71" height="74" fill="white" transform="translate(225 103)"/>
</clipPath>
</defs>
</svg>
