<svg width="375" height="215" viewBox="0 0 375 215" fill="none" xmlns="http://www.w3.org/2000/svg">
<path d="M-89 150.069C-64.2 171.307 -24.6667 162.195 -8 154.985C47 109.756 165.6 41.1255 200 128.437C234.4 215.749 304 154.985 335 123.521C357 111.379 371.4 115.852 401 159.901" stroke="#E56372" stroke-width="1.5"/>
<path d="M418 153.758C409.674 135.259 384.411 116.43 346.066 110.898C315.594 106.502 308.037 131.387 295.112 142.219C284.622 151.011 238.964 180.353 200.199 146.065C151.743 103.205 145.749 7.04437 18.3653 153.758C7.37537 161.451 -161.47 354.871 -158.973 1" stroke="#F9BE7D" stroke-width="1.5"/>
<line x1="80.1364" y1="111.5" x2="80.1364" y2="119.136" stroke="#6488E5" stroke-linecap="round"/>
<line x1="89.5" y1="120.136" x2="81.8636" y2="120.136" stroke="#6488E5" stroke-linecap="round"/>
<line x1="79.1364" y1="120.136" x2="71.5" y2="120.136" stroke="#6488E5" stroke-linecap="round"/>
<line x1="80.1364" y1="121.864" x2="80.1364" y2="129.5" stroke="#6488E5" stroke-linecap="round"/>
<line x1="309.136" y1="98.5" x2="309.136" y2="106.136" stroke="#6488E5" stroke-linecap="round"/>
<line x1="318.5" y1="107.136" x2="310.864" y2="107.136" stroke="#6488E5" stroke-linecap="round"/>
<line x1="308.136" y1="107.136" x2="300.5" y2="107.136" stroke="#6488E5" stroke-linecap="round"/>
<line x1="309.136" y1="108.864" x2="309.136" y2="116.5" stroke="#6488E5" stroke-linecap="round"/>
</svg>
