<svg width="375" height="204" viewBox="0 0 375 204" fill="none" xmlns="http://www.w3.org/2000/svg">
<path d="M0 0H375V174C375 190.569 361.569 204 345 204H30C13.4315 204 0 190.569 0 174V0Z" fill="#6488E5"/>
<line x1="35.7727" y1="89.5" x2="35.7727" y2="95.7727" stroke="#F9BE7D" stroke-linecap="round"/>
<line x1="43.5" y1="96.7727" x2="37.2273" y2="96.7727" stroke="#F9BE7D" stroke-linecap="round"/>
<line x1="34.7727" y1="96.7727" x2="28.5" y2="96.7727" stroke="#F9BE7D" stroke-linecap="round"/>
<line x1="35.7727" y1="98.2273" x2="35.7727" y2="104.5" stroke="#F9BE7D" stroke-linecap="round"/>
<line x1="171.136" y1="51.5" x2="171.136" y2="59.1364" stroke="#F9BE7D" stroke-linecap="round"/>
<line x1="180.5" y1="60.1364" x2="172.864" y2="60.1364" stroke="#F9BE7D" stroke-linecap="round"/>
<line x1="170.136" y1="60.1364" x2="162.5" y2="60.1364" stroke="#F9BE7D" stroke-linecap="round"/>
<line x1="171.136" y1="61.8636" x2="171.136" y2="69.5" stroke="#F9BE7D" stroke-linecap="round"/>
<line x1="337.864" y1="115.5" x2="337.864" y2="125.864" stroke="#F9BE7D" stroke-linecap="round"/>
<line x1="350.5" y1="126.864" x2="340.136" y2="126.864" stroke="#F9BE7D" stroke-linecap="round"/>
<line x1="336.864" y1="126.864" x2="326.5" y2="126.864" stroke="#F9BE7D" stroke-linecap="round"/>
<line x1="337.864" y1="129.136" x2="337.864" y2="139.5" stroke="#F9BE7D" stroke-linecap="round"/>
<path d="M478 79.6894C453.2 100.927 413.667 91.8161 397 84.6056C342 39.3766 223.4 -29.2536 189 58.0581C154.6 145.37 85 84.6056 54 53.142C32 41 17.6 45.4726 -12 89.5218" stroke="#F9BE7D" stroke-width="1.5"/>
<path d="M287.226 84.6479C287.226 93.3129 286.664 101.952 285.635 110.558C285.264 113.693 285.238 116.948 285.013 120.1C284.84 122.588 284.978 125.119 284.978 127.607C284.978 132.403 285.099 137.209 284.996 142.006C284.952 144.17 284.494 146.274 284.52 148.438C284.538 150.56 284.529 152.69 284.529 154.811C284.529 156.788 284.538 158.756 284.529 160.733C284.52 162.752 284.875 164.618 284.996 166.62C285.246 170.71 284.97 174.893 284.97 178.991" stroke="#F9BE7D" stroke-width="2.3632" stroke-miterlimit="10"/>
<path d="M285.117 109.603C285.203 109.842 285.177 110.055 285.039 110.251C283.95 108.981 283.319 107.516 282.273 106.195C281.253 104.9 280.181 103.571 279.429 102.055C278.66 100.504 277.916 98.9618 277.078 97.4111C276.533 96.3972 275.928 95.443 275.401 94.412C274.865 93.3641 274.458 92.2309 273.888 91.2085C272.695 89.0955 271.615 86.8973 270.586 84.682C269.661 82.6798 268.676 80.1749 268.624 77.9852C268.598 77.1161 268.287 75.3866 269.523 76.2301C270.102 76.622 270.499 77.3718 270.975 77.8744C272.868 79.8682 274.761 82.3986 276.075 84.8184C278.106 88.5587 280.769 91.9497 282.766 95.6986C283.466 97.0192 284.252 98.2631 284.831 99.6434C285.151 100.419 285.618 101.271 285.506 102.123C285.506 102.038 285.506 101.952 285.506 101.867C285.514 100.086 287.952 98.5358 289.119 97.147C290.545 95.443 291.842 93.4152 293.441 91.8901C295.057 90.3479 296.38 88.6269 297.971 87.0677C299.803 85.2614 301.8 84.0345 303.875 82.5179C305.647 81.2229 307.393 79.7574 309.459 78.9139C310.09 78.6498 310.029 78.5731 310.539 79.0076C310.764 79.1951 311.352 79.8937 311.533 80.1749C312.908 82.3475 310.885 85.1421 309.649 86.778C305.413 92.3928 299.535 96.5591 294.764 101.714C293.087 103.529 291.09 105.147 289.344 106.877C288.652 107.584 286.094 109.416 285.117 109.603Z" fill="#F9BE7D"/>
<path d="M284.33 133.204C283.984 132.241 282.489 131.33 281.711 130.614C279.671 128.757 277.7 126.789 275.79 124.795C273.62 122.52 271.347 120.254 269.376 117.8C267.924 115.994 266.212 113.949 265.08 111.921C263.576 109.229 261.242 105.446 262.045 102.234C262.573 100.129 264.863 99.3793 266.757 100.385C268.174 101.143 269.393 102.719 270.499 103.895C271.813 105.301 272.678 106.903 273.827 108.428C274.977 109.953 275.781 111.614 276.862 113.165C277.363 113.889 278.046 114.562 278.495 115.32C278.928 116.062 279.083 116.65 279.619 117.323C280.38 118.268 281.132 119.35 281.702 120.424C282.264 121.481 282.93 122.46 283.457 123.525C283.786 124.198 284.166 124.846 284.529 125.459C284.754 125.834 285.523 127.3 285.817 127.359C285.851 127.24 285.886 127.129 285.912 127.01C286.301 125.604 287.278 124.778 288.099 123.738C289.664 121.762 291.263 119.93 293 118.107C293.7 117.374 294.193 116.479 294.919 115.763C295.896 114.801 297.072 114.008 298.083 113.063C299.751 111.495 301.791 110.634 303.598 109.28C304.298 108.751 304.946 108.564 305.707 108.189C306.208 107.942 306.572 107.55 307.107 107.354C308.171 106.971 309.113 106.826 310.254 106.868C312.873 106.979 310.85 111.512 310.055 112.679C308.94 114.307 307.782 115.781 306.433 117.237C305.145 118.626 303.494 119.632 302.102 120.893C299.699 123.074 296.83 124.693 294.547 127.002C293.744 127.811 292.672 128.237 291.885 129.021C291.211 129.694 290.588 130.239 289.845 130.853C289.404 131.228 284.797 134.491 284.33 133.204Z" fill="#F9BE7D"/>
<path d="M283.941 153.329C283.051 153.499 281.849 152.63 281.114 152.187C279.481 151.216 277.648 150.449 276.092 149.384C272.021 146.598 267.751 143.914 263.895 140.83C261.553 138.955 258.942 136.953 258.112 133.971C257.179 130.64 262.383 133.468 263.627 134.065C265.002 134.721 266.35 135.752 267.552 136.663C268.797 137.609 270.257 138.717 271.398 139.765C272.341 140.634 273.214 141.58 274.13 142.483C274.986 143.335 276.144 143.923 276.896 144.8C277.57 145.584 278.271 146.249 278.945 147.041C279.394 147.569 279.922 148.2 280.509 148.575C281.374 149.128 283.319 150.21 283.552 151.369C283.31 150.159 285.454 148.89 285.912 147.901C286.595 146.41 287.632 145.158 288.747 143.948C289.949 142.636 290.874 141.171 292.093 139.876C293.381 138.504 294.565 137.089 296.026 135.88C297.02 135.053 298.092 134.244 299.25 133.673C300.348 133.136 302.353 131.935 303.624 132.386C305.638 133.102 303.555 136.663 302.976 137.643C300.555 141.784 296.639 144.698 292.948 147.603C291.375 148.839 290.027 150.33 288.341 151.48C287.658 151.94 286.993 152.4 286.284 152.826C285.575 153.252 284.728 153.516 284.097 154.036C284.175 153.942 283.863 153.44 283.941 153.329Z" fill="#F9BE7D"/>
</svg>
