<svg width="375" height="204" viewBox="0 0 375 204" fill="none" xmlns="http://www.w3.org/2000/svg">
<path d="M0 0H375V174C375 190.569 361.569 204 345 204H30C13.4315 204 0 190.569 0 174V0Z" fill="#F9BE7D"/>
<line x1="142.773" y1="57.5" x2="142.773" y2="63.7727" stroke="#6488E5" stroke-linecap="round"/>
<line x1="150.5" y1="64.7727" x2="144.227" y2="64.7727" stroke="#6488E5" stroke-linecap="round"/>
<line x1="141.773" y1="64.7727" x2="135.5" y2="64.7727" stroke="#6488E5" stroke-linecap="round"/>
<line x1="142.773" y1="66.2273" x2="142.773" y2="72.5" stroke="#6488E5" stroke-linecap="round"/>
<line x1="25.1362" y1="32.5" x2="25.1362" y2="40.1364" stroke="#6488E5" stroke-linecap="round"/>
<line x1="34.5" y1="41.1364" x2="26.8636" y2="41.1364" stroke="#6488E5" stroke-linecap="round"/>
<line x1="24.1362" y1="41.1364" x2="16.4999" y2="41.1364" stroke="#6488E5" stroke-linecap="round"/>
<line x1="25.1362" y1="42.8636" x2="25.1362" y2="50.5" stroke="#6488E5" stroke-linecap="round"/>
<line x1="338.864" y1="67.5" x2="338.864" y2="77.8636" stroke="#6488E5" stroke-linecap="round"/>
<line x1="351.5" y1="78.8636" x2="341.136" y2="78.8636" stroke="#6488E5" stroke-linecap="round"/>
<line x1="337.864" y1="78.8636" x2="327.5" y2="78.8636" stroke="#6488E5" stroke-linecap="round"/>
<line x1="338.864" y1="81.1364" x2="338.864" y2="91.5" stroke="#6488E5" stroke-linecap="round"/>
<path d="M399 97.758C390.674 79.2585 365.411 60.4295 327.066 54.8978C296.594 50.5019 289.037 75.3868 276.112 86.2187C265.622 95.0105 219.964 124.353 181.199 90.0651C132.743 47.205 126.749 -48.9556 -0.634674 97.758C-11.6246 105.451 -180.47 298.871 -177.973 -55" stroke="#6488E5" stroke-width="1.5"/>
<g clip-path="url(#clip0_455_4)">
<path d="M243.222 115.238C242.533 115.614 241.643 114.764 241.027 114.448C239.838 113.841 238.765 113.094 237.644 112.377C235.053 110.725 232.962 108.861 230.73 106.802C228.56 104.804 227.164 102.314 225.421 100.018C224.323 98.5726 223.799 96.9268 224.067 95.123C224.262 93.8294 225.232 92.5904 226.134 91.643C227.28 90.4344 228.597 90.3615 230.133 90.24C231.669 90.1186 233.394 90.0943 234.931 90.5376C236.321 90.9445 237.229 91.8798 238.454 92.5904C239.015 92.056 238.942 91.4608 239.107 90.7684C239.332 89.8149 239.82 89.2379 239.978 88.2784C240.314 86.2377 241.051 84.1181 242.106 82.2779C243.045 80.6381 244.252 78.8161 245.648 77.565C247.105 76.2593 249.074 74.4433 251.11 74.1032C254.853 73.4838 257.06 75.6155 258.566 78.6643C259.2 79.9518 260.303 81.4823 260.541 82.8913C260.657 83.5837 260.303 84.4097 260.376 85.0534C260.437 85.5636 260.12 85.4421 260.675 85.8247C260.992 86.0434 262.474 85.515 262.979 85.4664C265.302 85.2478 268.137 86.1345 270.21 87.2277C272.356 88.3573 273.672 89.7906 275.105 91.643C276.519 93.4771 277.336 95.2809 277.141 97.613C276.958 99.7873 276.3 102.04 275.166 103.911C274.885 104.373 274.294 104.889 274.379 105.49C274.532 106.541 276.653 107.355 277.428 107.968C280.079 110.063 280.738 113.003 279.092 115.875C278.482 116.944 277.915 118.129 276.922 118.906C276.038 119.598 274.91 119.993 273.91 120.485C271.88 121.475 270.271 122.137 268.009 122.198C265.644 122.265 263.485 121.566 261.126 121.475C258.316 121.366 255.841 120.455 253.201 119.69C249.903 118.736 245.898 117.807 243.276 115.578C243.319 115.954 243.368 116.331 243.411 116.701" fill="#FFF9ED"/>
<path d="M243.807 120.868C243.819 120.971 243.825 121.074 243.837 121.177C244.026 119.926 241.24 118.93 240.442 118.208C238.582 116.525 237.156 114.46 235.705 112.438C234.632 110.95 233.815 108.879 233.443 107.081C233.199 105.915 232.961 104.555 234.473 104.731C235.906 104.901 237.04 105.97 238.113 106.784C239.887 108.138 241.74 109.268 243.453 110.737C245.105 112.153 246.818 113.732 248.117 115.444C248.775 116.313 250.122 116.847 250.256 118.031C251.195 117.722 252.201 117.224 253.183 116.993C254.554 116.665 256.133 116.75 257.554 116.653C260.657 116.44 264.607 115.991 267.515 117.461C269.484 118.457 267.905 120.819 266.863 121.906C265.552 123.273 263.924 124.141 262.132 124.743C258.48 125.981 254.695 125.72 251.092 124.445C249.787 123.983 248.44 123.674 247.342 122.848C246.349 122.095 244.849 120.758 243.508 120.85C243.697 120.953 243.807 121.117 243.807 120.868Z" fill="#6488E5"/>
<path d="M247.684 118.007C246.288 119.264 244.703 119.969 243.691 121.56C242.74 123.06 241.581 124.36 240.643 125.872C239.527 127.664 238.174 129.297 237.058 131.101C235.729 133.251 234.62 135.45 233.516 137.721C231.675 141.523 230.517 145.878 229.877 150.044C229.669 151.416 229.395 152.716 229.054 154.058C228.749 155.273 228.182 156.579 228.316 157.842" stroke="#6488E5" stroke-width="5" stroke-miterlimit="10"/>
</g>
<defs>
<clipPath id="clip0_455_4">
<rect width="56" height="84" fill="white" transform="translate(224 74)"/>
</clipPath>
</defs>
</svg>
