<svg width="375" height="116" viewBox="0 0 375 116" fill="none" xmlns="http://www.w3.org/2000/svg">
<line x1="51.7727" y1="83.5" x2="51.7727" y2="89.7727" stroke="#E56372" stroke-linecap="round"/>
<line x1="59.5" y1="90.7727" x2="53.2273" y2="90.7727" stroke="#E56372" stroke-linecap="round"/>
<line x1="50.7727" y1="90.7727" x2="44.5" y2="90.7727" stroke="#E56372" stroke-linecap="round"/>
<line x1="51.7727" y1="92.2273" x2="51.7727" y2="98.5" stroke="#E56372" stroke-linecap="round"/>
<line x1="289.955" y1="67.5" x2="289.955" y2="76.9545" stroke="#F9BE7D" stroke-linecap="round"/>
<line x1="301.5" y1="77.9546" x2="292.045" y2="77.9546" stroke="#F9BE7D" stroke-linecap="round"/>
<line x1="288.955" y1="77.9546" x2="279.5" y2="77.9546" stroke="#F9BE7D" stroke-linecap="round"/>
<line x1="289.955" y1="80.0454" x2="289.955" y2="89.5" stroke="#F9BE7D" stroke-linecap="round"/>
<path d="M-160 73.452C-151.674 60.5603 -126.411 47.439 -88.0658 43.5842C-57.5936 40.5208 -50.037 57.8622 -37.1123 65.4106C-26.6219 71.5374 19.0363 91.9854 57.8009 68.0911C106.257 38.2233 112.251 -28.7879 239.635 73.452C250.625 78.8129 419.47 213.601 416.973 -33" stroke="#6488E5" stroke-width="1.5"/>
</svg>
