<svg width="375" height="311" viewBox="0 0 375 311" fill="none" xmlns="http://www.w3.org/2000/svg">
<path d="M0 0H375V281C375 297.569 361.569 311 345 311H30C13.4315 311 0 297.569 0 281V0Z" fill="#6488E5"/>
<path d="M-22 138.544C-9.63643 142.182 20.3481 147.354 37.3451 132.481C55.3606 116.716 54.3009 76.6984 47.9425 53.6579C42.4521 33.763 18.2699 -77.3093 91.3916 -15.4637C105.804 -6.73255 104.049 16.0655 106.228 29.4047C113.293 72.6562 159.427 143.395 287.442 80.3364C311.816 65.7845 362.684 82.7618 344.668 138.544C330.256 183.17 339.369 198.369 344.668 210.091C349.967 221.813 379.851 251.807 457 278" stroke="#F9BE7D" stroke-width="1.5"/>
<line x1="35.7727" y1="89.5" x2="35.7727" y2="95.7727" stroke="#F9BE7D" stroke-linecap="round"/>
<line x1="43.5" y1="96.7727" x2="37.2273" y2="96.7727" stroke="#F9BE7D" stroke-linecap="round"/>
<line x1="34.7727" y1="96.7727" x2="28.5" y2="96.7727" stroke="#F9BE7D" stroke-linecap="round"/>
<line x1="35.7727" y1="98.2273" x2="35.7727" y2="104.5" stroke="#F9BE7D" stroke-linecap="round"/>
<line x1="322.955" y1="111.5" x2="322.955" y2="120.955" stroke="#F9BE7D" stroke-linecap="round"/>
<line x1="334.5" y1="121.955" x2="325.045" y2="121.955" stroke="#F9BE7D" stroke-linecap="round"/>
<line x1="321.955" y1="121.955" x2="312.5" y2="121.955" stroke="#F9BE7D" stroke-linecap="round"/>
<line x1="322.955" y1="124.045" x2="322.955" y2="133.5" stroke="#F9BE7D" stroke-linecap="round"/>
<g clip-path="url(#clip0_305_2)">
<path d="M249.868 64.8105C247.526 65.9557 245.255 68.0844 243.619 70.1354C241.219 73.144 239.349 75.7449 238.457 79.5493C237.713 82.7391 237.331 86.5693 238.521 89.7397C238.961 90.9172 239.55 91.9589 239.945 93.1559C240.333 94.3399 241.225 95.5433 242.118 96.4038C242.998 97.2514 244.013 97.9243 244.932 98.7331C245.682 99.393 246.879 99.9753 247.772 100.402C250.23 101.567 252.41 102.816 255.198 103.139C256.266 103.262 257.191 103.521 258.277 103.482C259.455 103.437 260.71 103.197 261.861 102.9C264.255 102.285 266.506 101.308 268.789 100.396C270.711 99.6259 272.548 98.6166 274.268 97.4779C275.271 96.8179 276.119 96.0609 277.024 95.2781C277.464 94.8963 277.826 94.5146 278.195 94.0682C278.726 93.4211 279.411 92.7677 279.877 92.0754C282.361 88.4198 283.48 83.0755 282.432 78.8247C281.358 74.4574 278.363 69.9801 275.187 66.8162C274.65 66.2792 274.133 65.5869 273.531 65.134C272.916 64.6682 272.05 64.4288 271.325 64.1506C269.87 63.5877 268.362 63.1542 266.868 62.8242C264.093 62.216 261.065 62.4813 258.193 62.4813C256.628 62.4813 255.341 62.7724 253.859 63.2318C253.154 63.4518 252.546 63.8206 251.86 64.0729C251.265 64.2929 250.107 64.2864 249.687 64.7393C249.881 64.9787 250.165 65.0046 249.868 64.8105Z" fill="#F9BE7D"/>
<path d="M271.629 60.9673C271.771 60.5208 272.121 60.0485 272.315 59.615C272.548 59.078 272.858 58.5151 273.059 57.9587C273.57 56.5547 274.23 55.1183 274.644 53.6884C274.922 52.7179 275.556 51.8057 275.963 50.8934C276.196 50.3628 276.339 49.8646 276.636 49.3535C276.856 48.9847 277.154 48.6159 277.335 48.2277C277.464 47.9301 277.555 47.6131 277.6 47.2896C277.684 47.0178 277.826 46.7784 278.014 46.5649C278.182 46.1961 278.324 45.8014 278.46 45.4262C278.797 44.4945 279.269 43.6404 279.683 42.7411C279.961 42.1394 280.627 41.4147 280.517 40.6966C280.433 40.1401 280.155 40.2048 279.651 39.959C279.282 39.7778 278.661 39.3378 278.221 39.5966C277.788 39.849 277.716 40.7871 277.555 41.1818C277.277 41.8547 277.179 42.5729 276.882 43.2458C276.584 43.9251 276.203 44.5527 275.95 45.2515C275.329 46.966 274.527 48.6094 273.854 50.3111C273.104 52.2068 272.043 53.9925 271.17 55.843C270.4 57.4734 269.676 59.1104 268.899 60.7344C269.805 60.7408 270.827 60.5855 271.629 60.9673Z" fill="#E56372"/>
<path d="M254.648 61.7242C254.532 61.2648 254.59 60.689 254.525 60.2102C254.448 59.6279 254.415 58.9938 254.299 58.4115C254.001 56.9493 253.814 55.3771 253.419 53.9407C253.154 52.9637 253.219 51.8573 253.089 50.8674C253.012 50.2916 252.869 49.7934 252.856 49.2046C252.85 48.7776 252.908 48.3053 252.863 47.8783C252.818 47.5547 252.727 47.2442 252.604 46.9401C252.533 46.6619 252.527 46.3837 252.578 46.1055C252.527 45.7043 252.449 45.2902 252.365 44.902C252.164 43.9315 252.119 42.961 252.009 41.9711C251.931 41.3111 252.119 40.3471 251.653 39.7907C251.291 39.3572 251.084 39.5577 250.534 39.616C250.127 39.6548 249.363 39.603 249.124 40.0559C248.885 40.4959 249.318 41.3305 249.383 41.7576C249.499 42.4757 249.79 43.1422 249.887 43.8668C249.991 44.5979 249.991 45.3355 250.139 46.0666C250.502 47.8588 250.676 49.6705 250.993 51.4756C251.343 53.4878 251.369 55.5647 251.589 57.5963C251.783 59.3885 252.015 61.1613 252.203 62.9535C252.973 62.4747 253.769 61.8083 254.648 61.7242Z" fill="#E56372"/>
<path d="M240.598 123.546C240.74 123.099 241.089 122.627 241.284 122.194C241.516 121.657 241.827 121.094 242.027 120.537C242.539 119.133 243.198 117.697 243.612 116.267C243.891 115.296 244.524 114.384 244.932 113.472C245.165 112.941 245.307 112.443 245.605 111.932C245.825 111.563 246.122 111.194 246.303 110.806C246.433 110.509 246.523 110.192 246.569 109.868C246.653 109.596 246.795 109.357 246.983 109.143C247.151 108.775 247.293 108.38 247.429 108.005C247.765 107.073 248.238 106.219 248.652 105.32C248.93 104.718 249.596 103.993 249.486 103.275C249.402 102.719 249.124 102.783 248.619 102.537C248.251 102.356 247.63 101.916 247.19 102.175C246.756 102.427 246.685 103.366 246.523 103.76C246.245 104.433 246.148 105.151 245.851 105.824C245.553 106.504 245.171 107.131 244.919 107.83C244.298 109.545 243.496 111.188 242.823 112.89C242.073 114.785 241.012 116.571 240.139 118.421C239.369 120.052 238.644 121.689 237.868 123.313C238.78 123.319 239.802 123.164 240.598 123.546Z" fill="#E56372"/>
<path d="M282.82 121.715C282.562 121.32 282.413 120.757 282.193 120.33C281.921 119.806 281.675 119.217 281.371 118.713C280.595 117.438 279.89 116.015 279.036 114.805C278.454 113.977 278.143 112.915 277.691 112.023C277.425 111.505 277.121 111.084 276.914 110.534C276.759 110.133 276.662 109.667 276.474 109.286C276.319 108.995 276.132 108.729 275.912 108.49C275.756 108.251 275.653 107.992 275.601 107.714C275.42 107.351 275.206 106.995 274.993 106.652C274.475 105.805 274.113 104.906 273.673 104.019C273.376 103.424 273.227 102.453 272.606 102.085C272.121 101.8 271.991 102.059 271.493 102.298C271.125 102.473 270.387 102.68 270.31 103.184C270.232 103.683 270.918 104.323 271.125 104.698C271.474 105.339 271.972 105.863 272.315 106.517C272.658 107.17 272.904 107.869 273.292 108.503C274.236 110.062 275.012 111.718 275.918 113.304C276.927 115.076 277.652 117.024 278.538 118.861C279.321 120.485 280.142 122.077 280.925 123.701C281.501 122.989 282.018 122.096 282.82 121.715Z" fill="#E56372"/>
<path d="M240.326 72.2704C239.964 71.9663 239.666 71.4681 239.33 71.1252C238.922 70.7047 238.521 70.2065 238.081 69.8053C236.975 68.8025 235.895 67.6443 234.731 66.7256C233.935 66.098 233.34 65.1663 232.648 64.4416C232.246 64.0211 231.839 63.704 231.483 63.2382C231.224 62.8953 230.998 62.4812 230.707 62.1642C230.48 61.9312 230.222 61.7307 229.944 61.5624C229.724 61.3813 229.555 61.1613 229.426 60.909C229.148 60.6178 228.837 60.3331 228.54 60.0614C227.802 59.395 227.194 58.638 226.522 57.9133C226.069 57.4281 225.648 56.5417 224.95 56.367C224.406 56.2311 224.354 56.5158 223.94 56.8911C223.636 57.1628 222.99 57.5704 223.061 58.0816C223.132 58.5797 223.973 58.9938 224.277 59.2979C224.794 59.8155 225.422 60.1714 225.933 60.7019C226.45 61.2325 226.884 61.8277 227.434 62.3259C228.786 63.5552 230.002 64.9139 231.321 66.1821C232.796 67.5926 234.045 69.2554 235.416 70.7629C236.632 72.0957 237.868 73.3833 239.084 74.7161C239.421 73.8685 239.666 72.8657 240.326 72.2704Z" fill="#E56372"/>
<path d="M277.089 65.9751C277.568 66.0786 278.247 65.6386 278.68 65.464C279.347 65.1987 279.993 64.9787 280.679 64.7846C282.976 64.1376 285.078 62.8824 287.342 62.1513C290.007 61.2908 292.569 59.9515 295.072 58.6833C296.373 58.0234 297.744 57.4669 299.135 57.027C299.905 56.7811 300.636 56.4576 301.431 56.3735C301.263 55.6489 300.894 54.963 300.552 54.2966C300.358 53.9278 300.066 53.5914 299.866 53.2291C299.698 52.9379 299.601 52.5756 299.355 52.3427C299.09 52.5303 298.708 52.6856 298.397 52.8538C297.751 53.1967 297.097 53.3843 296.418 53.6561C295.907 53.8566 295.467 54.2125 294.975 54.4584C294.516 54.6913 294.024 54.8272 293.552 55.0342C292.53 55.4871 291.566 56.0953 290.557 56.5741C287.704 57.9263 285.02 59.628 282.148 60.9478C280.686 61.6207 279.256 62.3907 277.775 63.0183C277.354 63.1994 277.024 63.4324 276.636 63.6588C276.306 63.8529 275.802 63.8982 275.517 64.1505C275.84 64.6099 276.487 65.8522 277.089 65.9751Z" fill="#E56372"/>
<path d="M263.647 34.5176C263.323 34.8864 263.388 35.6952 263.33 36.1545C263.239 36.8727 263.116 37.5327 262.961 38.2314C262.424 40.5542 262.502 42.9999 262.049 45.3356C261.512 48.0853 261.447 50.971 261.35 53.779C261.298 55.2348 261.124 56.7099 260.839 58.1333C260.684 58.9292 260.613 59.725 260.302 60.4561C261.014 60.6567 261.796 60.6696 262.547 60.689C262.961 60.702 263.401 60.6049 263.815 60.6049C264.151 60.5984 264.513 60.689 264.843 60.5855C264.811 60.262 264.856 59.8479 264.863 59.4985C264.876 58.7609 265.024 58.101 265.115 57.3764C265.186 56.8264 265.089 56.2764 265.109 55.7265C265.128 55.2089 265.244 54.7107 265.29 54.1995C265.387 53.0867 265.322 51.948 265.393 50.8286C265.587 47.6777 265.393 44.5074 265.626 41.35C265.742 39.7389 265.762 38.1214 265.924 36.5169C265.969 36.064 265.924 35.6628 265.911 35.2099C265.891 34.8346 266.092 34.3753 266.008 34C265.445 34.0841 264.048 34.0453 263.647 34.5176Z" fill="#E56372"/>
<path d="M215.169 105.462C215.647 105.565 216.327 105.125 216.753 104.951C217.42 104.685 218.067 104.466 218.752 104.271C221.049 103.624 223.151 102.369 225.415 101.638C228.081 100.778 230.642 99.4383 233.146 98.1701C234.446 97.5102 235.817 96.9538 237.208 96.5138C237.978 96.2679 238.709 95.9444 239.505 95.8603C239.336 95.1357 238.968 94.4498 238.625 93.7834C238.431 93.4146 238.14 93.0782 237.939 92.7159C237.771 92.4247 237.674 92.0624 237.428 91.8295C237.163 92.0171 236.781 92.1724 236.471 92.3406C235.824 92.6835 235.17 92.8712 234.491 93.1429C233.98 93.3435 233.54 93.6993 233.049 93.9452C232.589 94.1781 232.098 94.314 231.625 94.521C230.603 94.9739 229.64 95.5821 228.624 96.0609C225.771 97.4131 223.087 99.1148 220.214 100.435C218.752 101.108 217.323 101.877 215.841 102.505C215.421 102.686 215.091 102.919 214.703 103.146C214.373 103.34 213.868 103.385 213.584 103.644C213.92 104.09 214.567 105.332 215.169 105.462Z" fill="#E56372"/>
<path d="M235.889 77.3882C235.578 77.0065 234.776 76.9288 234.33 76.793C233.637 76.5795 233.003 76.3465 232.35 76.0683C230.157 75.1366 227.731 74.7937 225.506 73.9461C222.886 72.9433 220.059 72.3869 217.31 71.8046C215.88 71.5005 214.464 71.0734 213.105 70.5494C212.348 70.2582 211.578 70.0512 210.906 69.6241C210.582 70.2906 210.44 71.0605 210.291 71.7981C210.207 72.2057 210.226 72.6521 210.155 73.0597C210.103 73.3962 209.948 73.7326 210 74.0755C210.323 74.1014 210.724 74.2114 211.067 74.2826C211.792 74.4249 212.413 74.6837 213.118 74.8972C213.642 75.059 214.205 75.059 214.742 75.1755C215.246 75.2854 215.712 75.486 216.21 75.6219C217.284 75.9066 218.422 76.0424 219.509 76.3012C222.582 77.0324 225.739 77.3947 228.805 78.1646C230.371 78.5593 231.962 78.8569 233.514 79.2904C233.954 79.4134 234.355 79.4392 234.802 79.5039C235.177 79.5622 235.597 79.8404 235.986 79.821C236.005 79.2387 236.283 77.867 235.889 77.3882Z" fill="#E56372"/>
<path d="M305.998 68.712C305.985 68.7702 305.973 68.8349 305.96 68.8931C305.617 68.9578 305.319 69.1325 304.976 69.1713C304.653 69.2102 304.284 69.1649 303.954 69.1649C303.32 69.1584 302.635 69.4107 302.039 69.6501C300.94 70.0901 299.627 70.2065 298.449 70.5365C296.043 71.1965 293.572 71.6494 291.152 72.3093C289.593 72.7363 287.983 72.9757 286.43 73.4092C285.369 73.7069 284.418 74.1727 283.325 74.1792C283.377 74.1792 282.969 74.4056 283.021 74.4056C282.633 73.9915 282.419 73.2992 282.161 72.801C281.915 72.3287 281.63 71.7205 281.43 71.2159C282.419 71.2288 283.293 71.0735 284.263 70.8471C285.68 70.5171 287.083 70.226 288.487 69.8507C291.301 69.1002 294.063 68.3367 296.91 67.7479C298.837 67.3468 300.817 66.5898 302.783 66.428C303.269 66.3892 303.728 66.2404 304.207 66.2016C304.847 66.1433 304.879 66.2663 304.879 65.5287C304.892 66.2792 305.468 66.2663 305.571 67.0103C305.649 67.5797 306.024 68.1361 306.063 68.6731C306.102 68.6796 305.934 68.6926 305.998 68.712Z" fill="#E56372"/>
<path d="M235.313 86.1358C235.3 86.194 235.287 86.2587 235.274 86.3169C234.931 86.3816 234.634 86.5563 234.291 86.5952C233.967 86.634 233.599 86.5887 233.269 86.5887C232.635 86.5822 231.949 86.8346 231.354 87.0739C230.254 87.5139 228.941 87.6304 227.764 87.9603C225.357 88.6203 222.886 89.0732 220.467 89.7331C218.908 90.1602 217.297 90.3996 215.744 90.8331C214.683 91.1307 213.733 91.5965 212.639 91.603C212.691 91.603 212.283 91.8294 212.335 91.8294C211.947 91.4154 211.734 90.7231 211.475 90.2249C211.229 89.7526 210.944 89.1444 210.744 88.6397C211.734 88.6526 212.607 88.4974 213.577 88.2709C214.994 87.9409 216.398 87.6498 217.801 87.2745C220.615 86.524 223.378 85.7605 226.224 85.1717C228.152 84.7706 230.131 84.0136 232.098 83.8519C232.583 83.813 233.042 83.6642 233.521 83.6254C234.161 83.5672 234.194 83.6901 234.194 82.9525C234.207 83.703 234.782 83.6901 234.886 84.4342C234.963 85.0035 235.339 85.5599 235.377 86.097C235.416 86.1099 235.248 86.1228 235.313 86.1358Z" fill="#E56372"/>
<path d="M292.647 117.225C292.588 117.237 292.524 117.25 292.465 117.263C292.265 116.972 291.987 116.772 291.812 116.474C291.65 116.189 291.54 115.833 291.411 115.529C291.165 114.947 290.661 114.417 290.201 113.964C289.36 113.135 288.726 111.977 287.957 111.02C286.391 109.079 284.994 106.989 283.422 105.035C282.413 103.773 281.546 102.395 280.53 101.14C279.838 100.279 279.03 99.6001 278.583 98.5972C278.603 98.6425 278.234 98.3643 278.253 98.4096C278.48 97.8855 279.03 97.4132 279.379 96.9797C279.715 96.5656 280.162 96.0609 280.537 95.6727C280.918 96.585 281.41 97.3291 282.005 98.1249C282.872 99.2895 283.7 100.461 284.606 101.599C286.417 103.877 288.215 106.109 289.897 108.483C291.036 110.095 292.517 111.609 293.455 113.342C293.688 113.776 294.005 114.132 294.231 114.559C294.536 115.128 294.445 115.206 295.111 114.908C294.432 115.225 294.665 115.743 294.031 116.131C293.539 116.429 293.177 116.992 292.705 117.244C292.711 117.309 292.634 117.166 292.647 117.225Z" fill="#E56372"/>
<path d="M308.728 80.3192C308.256 80.9403 308.269 80.5974 307.577 80.7656C307.37 80.8174 307.35 80.9662 307.143 81.018C306.969 81.0632 306.632 81.005 306.451 81.005C305.617 80.9985 304.782 81.005 303.948 81.005C301.755 81.005 299.568 81.005 297.375 81.005C296.631 81.005 296.03 81.0374 295.312 81.1797C294.438 81.3544 293.468 81.2121 292.575 81.225C290.667 81.2509 288.778 81.6973 286.863 81.6844C286.339 81.6779 285.809 81.6844 285.285 81.6844C284.793 81.6844 284.483 81.8461 284.366 81.3544C284.179 80.5909 284.379 79.5169 284.379 78.7275C284.8 78.8052 285.317 78.5529 285.738 78.5011C286.488 78.404 287.219 78.197 287.97 78.0935C288.772 77.9835 289.561 78.1 290.363 78.0611C291.12 78.0223 291.819 77.8023 292.582 77.8153C293.779 77.8347 294.975 77.6729 296.166 77.6082C297.401 77.5435 298.637 77.2071 299.872 77.1294C300.81 77.0712 301.703 76.9353 302.648 76.9224C303.333 76.9095 303.935 76.683 304.64 76.6895C304.976 76.696 305.403 76.7606 305.727 76.7024C306.082 76.6377 306.322 76.476 306.691 76.4566C306.995 76.4371 307.299 76.4824 307.603 76.4695C307.946 76.4501 308.178 76.2819 308.515 76.2366C308.45 76.2495 308.845 76.2625 308.78 76.2754C308.521 76.9806 308.896 77.7312 308.974 78.3976C309.058 79.1222 308.968 79.9375 308.968 80.6686C308.955 80.5456 308.728 80.4292 308.728 80.3192Z" fill="#E56372"/>
<path d="M232.803 44.365C233.586 44.4168 233.288 44.5979 233.806 45.0832C233.961 45.2255 234.097 45.1608 234.252 45.3032C234.388 45.4261 234.524 45.7367 234.627 45.8919C235.08 46.5907 235.546 47.2895 236.005 47.9818C237.208 49.8128 238.411 51.6438 239.621 53.4749C240.029 54.096 240.391 54.5812 240.902 55.1053C241.529 55.7394 241.943 56.6323 242.448 57.3698C243.522 58.9485 244.926 60.2814 245.974 61.886C246.258 62.3259 246.549 62.7659 246.84 63.2058C247.112 63.6135 247.416 63.7882 247.073 64.1569C246.536 64.7263 245.534 65.1598 244.874 65.5933C244.706 65.1986 244.214 64.9075 243.936 64.584C243.444 64.0081 242.868 63.5164 242.37 62.947C241.833 62.3389 241.497 61.6142 241.025 60.9672C240.578 60.359 240.009 59.8932 239.602 59.2462C238.961 58.2368 238.166 57.331 237.454 56.367C236.717 55.3706 235.759 54.523 235.015 53.5331C234.452 52.7826 233.851 52.1097 233.314 51.3268C232.926 50.7574 232.408 50.3822 232.027 49.7934C231.845 49.5087 231.671 49.1205 231.438 48.8811C231.186 48.6158 230.92 48.5059 230.707 48.2147C230.526 47.9688 230.396 47.6906 230.215 47.4512C230.008 47.173 229.737 47.0695 229.523 46.8172C229.568 46.8625 229.361 46.526 229.407 46.5713C230.138 46.3966 230.558 45.672 231.069 45.2385C231.632 44.7662 232.356 44.3974 232.971 43.9962C232.861 44.048 232.893 44.3003 232.803 44.365Z" fill="#E56372"/>
<path d="M305.824 99.1731C305.151 99.5742 305.293 99.2572 304.595 99.1536C304.388 99.1213 304.31 99.2572 304.103 99.2248C303.922 99.1989 303.631 99.0242 303.463 98.9531C302.693 98.636 301.917 98.3255 301.14 98.0149C299.109 97.1932 297.078 96.3715 295.047 95.5498C294.354 95.2716 293.785 95.0775 293.067 94.9416C292.187 94.7734 291.34 94.2817 290.512 93.9582C288.733 93.2723 286.818 92.9747 285.046 92.2436C284.56 92.043 284.069 91.8489 283.584 91.6548C283.124 91.4737 282.782 91.506 282.853 91.0014C282.969 90.2249 283.551 89.2997 283.849 88.5686C284.211 88.7951 284.78 88.7562 285.194 88.8662C285.925 89.0603 286.682 89.138 287.413 89.3191C288.196 89.5132 288.888 89.9208 289.645 90.1861C290.363 90.432 291.088 90.4902 291.793 90.7878C292.892 91.2537 294.063 91.5513 295.195 91.9395C296.366 92.3407 297.634 92.4895 298.811 92.8841C299.704 93.1818 300.584 93.3953 301.464 93.7317C302.104 93.9776 302.745 93.9905 303.398 94.2623C303.708 94.3917 304.077 94.6117 304.401 94.6828C304.756 94.754 305.035 94.6958 305.384 94.8187C305.668 94.9157 305.94 95.071 306.225 95.1681C306.555 95.2781 306.833 95.2069 307.156 95.291C307.092 95.2781 307.454 95.4398 307.389 95.4269C306.885 95.9833 306.956 96.8179 306.775 97.4714C306.581 98.1767 306.192 98.8948 305.914 99.5742C305.953 99.4642 305.785 99.2766 305.824 99.1731Z" fill="#E56372"/>
<path d="M225.635 117.93C225.512 117.153 225.752 117.406 226.114 116.791C226.224 116.61 226.127 116.487 226.23 116.306C226.321 116.15 226.593 115.943 226.722 115.814C227.304 115.219 227.88 114.611 228.462 114.009C229.982 112.43 231.503 110.851 233.023 109.273C233.54 108.736 233.935 108.276 234.33 107.662C234.815 106.911 235.584 106.31 236.199 105.656C237.499 104.265 238.495 102.596 239.828 101.224C240.197 100.849 240.559 100.467 240.921 100.085C241.258 99.7294 241.361 99.393 241.801 99.6518C242.474 100.046 243.121 100.933 243.684 101.483C243.334 101.735 243.16 102.279 242.907 102.622C242.454 103.23 242.099 103.896 241.652 104.511C241.18 105.164 240.54 105.656 240.016 106.258C239.518 106.827 239.194 107.481 238.651 108.024C237.81 108.872 237.098 109.849 236.315 110.754C235.507 111.693 234.892 112.812 234.09 113.757C233.482 114.475 232.958 115.206 232.318 115.905C231.852 116.409 231.6 116.998 231.102 117.503C230.862 117.742 230.526 118.001 230.338 118.279C230.138 118.583 230.086 118.861 229.847 119.14C229.653 119.366 229.407 119.56 229.206 119.787C228.98 120.045 228.941 120.337 228.74 120.602C228.773 120.55 228.495 120.822 228.527 120.77C228.197 120.091 227.395 119.845 226.858 119.437C226.276 118.991 225.758 118.363 225.228 117.859C225.318 117.936 225.551 117.852 225.635 117.93Z" fill="#E56372"/>
<path d="M259.196 106.937C259.267 107.286 259.021 107.526 258.957 107.849C258.898 108.14 259.047 108.483 258.982 108.775C258.892 109.156 258.665 109.583 258.568 109.952C258.4 110.573 258.381 111.246 258.245 111.887C258.044 112.831 257.598 113.756 257.326 114.682C257.132 115.329 256.705 115.853 256.518 116.506C256.375 116.998 256.214 117.412 256.007 117.871C255.463 119.062 255.347 120.492 255.043 121.753C254.771 122.879 254.441 124.018 254.241 125.157C254.157 125.636 254.137 126.069 253.963 126.522C253.82 126.897 253.594 127.234 253.51 127.654C253.406 128.165 252.643 128.139 252.235 128.12C251.33 128.068 250.812 127.706 250.094 127.201C250.088 127.253 250.088 127.311 250.081 127.363C250.469 126.328 250.612 125.098 250.825 124.018C251.213 122.071 252.048 120.227 252.488 118.298C252.973 116.176 253.49 114.061 253.969 111.938C254.15 111.143 254.228 110.334 254.357 109.532C254.538 108.399 254.836 107.545 255.321 106.484C255.67 106.536 255.851 106.322 256.136 106.458C256.466 106.62 256.828 106.607 257.152 106.704C257.423 106.788 257.508 106.911 257.818 106.943C258.193 106.982 258.827 106.937 259.196 106.937Z" fill="#E56372"/>
<path d="M269.145 128.301C269.08 128.288 269.022 128.275 268.957 128.262C268.718 127.609 268.906 126.503 268.919 125.797C268.925 125.364 268.77 125.26 268.679 124.904C268.569 124.471 268.692 123.863 268.692 123.416C268.692 122.853 268.653 122.452 268.518 121.935C268.375 121.411 268.537 120.854 268.472 120.317C268.414 119.8 268.239 119.366 268.239 118.829C268.239 118.273 268.032 117.833 268.007 117.289C267.968 116.662 267.981 116.157 267.838 115.549C267.735 115.096 267.845 114.643 267.735 114.19C267.605 113.64 267.58 113.071 267.444 112.508C267.301 111.906 267.398 111.317 267.282 110.716C267.069 109.661 266.842 108.593 266.596 107.532C266.376 106.575 266.195 105.617 266.195 104.627C265.089 104.647 264.158 104.446 263.239 105.08C262.696 105.455 263.013 107.584 263.013 108.257C263.013 108.994 263.045 109.59 263.187 110.301C263.342 111.058 263.148 111.835 263.258 112.592C263.44 113.879 263.653 115.206 263.692 116.513C263.731 117.71 264.028 118.874 264.158 120.052C264.203 120.434 264.151 120.861 264.145 121.249C264.138 121.728 264.274 122.051 264.352 122.498C264.475 123.177 264.371 123.96 264.371 124.659C264.371 126.024 264.371 127.389 264.371 128.754C264.229 128.754 265.186 128.981 265.4 128.981C265.788 128.981 266.215 129.039 266.596 128.935C267.411 128.722 268.226 128.275 269.145 128.301Z" fill="#E56372"/>
</g>
<defs>
<clipPath id="clip0_305_2">
<rect width="99" height="95" fill="white" transform="translate(210 34)"/>
</clipPath>
</defs>
</svg>
