<svg width="174" height="174" viewBox="0 0 174 174" fill="none" xmlns="http://www.w3.org/2000/svg">
<g clip-path="url(#clip0_459_2)">
<rect width="174" height="174" fill="#FFF9ED"/>
<path d="M108.61 96.904C97.3455 109.064 72.6415 107.016 69.5695 90.504L109.122 83.848C109.762 66.952 98.2415 57.736 81.0895 57.736C61.8895 57.736 46.4015 69.768 48.1935 90.376C49.4735 105.736 62.2735 118.152 81.6015 118.152C97.3455 118.152 106.562 108.296 110.786 98.696C110.786 98.568 108.61 96.904 108.61 96.904ZM78.7855 62.344C87.6175 61.576 90.4335 69.64 89.7935 81.928L68.8015 85.512C67.2655 73.352 70.7215 63.112 78.7855 62.344Z" fill="#22254C"/>
<circle cx="132.143" cy="38.0329" r="5.31337" transform="rotate(30.1822 132.143 38.0329)" fill="#6488E5"/>
<path d="M133.4 32.9896C121.75 31.2431 117.116 41.7727 116.457 52.1928C119.277 46.9087 121.522 40.5545 130.747 42.9951L133.4 32.9896Z" fill="#6488E5" stroke="#6488E5"/>
<circle cx="147.348" cy="67.1447" r="5.31337" transform="rotate(68.5284 147.348 67.1447)" fill="#6488E5"/>
<path d="M151.463 63.9691C143.41 55.3715 133.243 60.7547 126.261 68.5183C131.751 66.1234 137.454 62.5329 143.175 70.1704L151.463 63.9691Z" fill="#6488E5" stroke="#6488E5"/>
<circle cx="35" cy="117" r="4" fill="#6488E5"/>
<circle cx="47" cy="131" r="4" fill="#F9BE7D"/>
<circle cx="66" cy="135" r="4" fill="#E56372"/>
</g>
<defs>
<clipPath id="clip0_459_2">
<rect width="174" height="174" fill="white"/>
</clipPath>
</defs>
</svg>
