<svg width="375" height="115" viewBox="0 0 375 115" fill="none" xmlns="http://www.w3.org/2000/svg">
<path d="M379 78.1377C354.2 95.1902 314.667 87.8745 298 82.0851C243 45.7696 124.4 -9.33519 90 60.7695C55.6 130.874 -14 82.0851 -45 56.8222C-67 47.0731 -81.4 50.6643 -111 86.0324" stroke="#6488E5" stroke-width="1.5"/>
<path d="M-160 71.3291C-151.674 58.089 -126.411 44.6131 -88.0658 40.654C-57.5936 37.5078 -50.037 55.318 -37.1123 63.0704C-26.6219 69.3627 19.0363 90.3633 57.8009 65.8233C106.257 35.1482 112.251 -33.674 239.635 71.3291C250.625 76.8349 419.47 215.266 416.973 -38" stroke="#F9BE7D" stroke-width="1.5"/>
<line x1="37.1362" y1="43.5" x2="37.1362" y2="51.1364" stroke="#6488E5" stroke-linecap="round"/>
<line x1="46.5" y1="52.1364" x2="38.8636" y2="52.1364" stroke="#6488E5" stroke-linecap="round"/>
<line x1="36.1362" y1="52.1364" x2="28.4999" y2="52.1364" stroke="#6488E5" stroke-linecap="round"/>
<line x1="37.1362" y1="53.8636" x2="37.1362" y2="61.5" stroke="#6488E5" stroke-linecap="round"/>
<line x1="250.136" y1="86.5" x2="250.136" y2="94.1364" stroke="#6488E5" stroke-linecap="round"/>
<line x1="259.5" y1="95.1364" x2="251.864" y2="95.1364" stroke="#6488E5" stroke-linecap="round"/>
<line x1="249.136" y1="95.1364" x2="241.5" y2="95.1364" stroke="#6488E5" stroke-linecap="round"/>
<line x1="250.136" y1="96.8636" x2="250.136" y2="104.5" stroke="#6488E5" stroke-linecap="round"/>
</svg>
