<svg width="375" height="215" viewBox="0 0 375 215" fill="none" xmlns="http://www.w3.org/2000/svg">
<path d="M-90 150.069C-65.2 171.307 -25.6667 162.195 -9 154.985C46 109.756 164.6 41.1255 199 128.437C233.4 215.749 303 154.985 334 123.521C356 111.379 370.4 115.852 400 159.901" stroke="#6488E5" stroke-width="1.5"/>
<path d="M417 153.758C408.674 135.259 383.411 116.43 345.066 110.898C314.594 106.502 307.037 131.387 294.112 142.219C283.622 151.011 237.964 180.353 199.199 146.065C150.743 103.205 144.749 7.04437 17.3653 153.758C6.37537 161.451 -162.47 354.871 -159.973 1" stroke="#F9BE7D" stroke-width="1.5"/>
<line x1="79.1362" y1="111.5" x2="79.1362" y2="119.136" stroke="#6488E5" stroke-linecap="round"/>
<line x1="88.5" y1="120.136" x2="80.8636" y2="120.136" stroke="#6488E5" stroke-linecap="round"/>
<line x1="78.1362" y1="120.136" x2="70.4999" y2="120.136" stroke="#6488E5" stroke-linecap="round"/>
<line x1="79.1362" y1="121.864" x2="79.1362" y2="129.5" stroke="#6488E5" stroke-linecap="round"/>
<line x1="308.136" y1="98.5" x2="308.136" y2="106.136" stroke="#6488E5" stroke-linecap="round"/>
<line x1="317.5" y1="107.136" x2="309.864" y2="107.136" stroke="#6488E5" stroke-linecap="round"/>
<line x1="307.136" y1="107.136" x2="299.5" y2="107.136" stroke="#6488E5" stroke-linecap="round"/>
<line x1="308.136" y1="108.864" x2="308.136" y2="116.5" stroke="#6488E5" stroke-linecap="round"/>
</svg>
