<svg width="375" height="204" viewBox="0 0 375 204" fill="none" xmlns="http://www.w3.org/2000/svg">
<path d="M0 0H375V174C375 190.569 361.569 204 345 204H30C13.4315 204 0 190.569 0 174V0Z" fill="#E56372"/>
<line x1="34.7727" y1="100.5" x2="34.7727" y2="106.773" stroke="#F9BE7D" stroke-linecap="round"/>
<line x1="42.5" y1="107.773" x2="36.2273" y2="107.773" stroke="#F9BE7D" stroke-linecap="round"/>
<line x1="33.7727" y1="107.773" x2="27.5" y2="107.773" stroke="#F9BE7D" stroke-linecap="round"/>
<line x1="34.7727" y1="109.227" x2="34.7727" y2="115.5" stroke="#F9BE7D" stroke-linecap="round"/>
<line x1="358.136" y1="97.5" x2="358.136" y2="105.136" stroke="#F9BE7D" stroke-linecap="round"/>
<line x1="367.5" y1="106.136" x2="359.864" y2="106.136" stroke="#F9BE7D" stroke-linecap="round"/>
<line x1="357.136" y1="106.136" x2="349.5" y2="106.136" stroke="#F9BE7D" stroke-linecap="round"/>
<line x1="358.136" y1="107.864" x2="358.136" y2="115.5" stroke="#F9BE7D" stroke-linecap="round"/>
<line x1="127.864" y1="56.5" x2="127.864" y2="66.8636" stroke="#F9BE7D" stroke-linecap="round"/>
<line x1="140.5" y1="67.8636" x2="130.136" y2="67.8636" stroke="#F9BE7D" stroke-linecap="round"/>
<line x1="126.864" y1="67.8636" x2="116.5" y2="67.8636" stroke="#F9BE7D" stroke-linecap="round"/>
<line x1="127.864" y1="70.1364" x2="127.864" y2="80.5" stroke="#F9BE7D" stroke-linecap="round"/>
<path d="M-22 90.9839C-9.63643 93.6191 20.3481 97.3656 37.3451 86.5919C55.3606 75.1726 54.3009 46.1854 47.9425 29.4958C42.4521 15.0847 18.2699 -65.3715 91.3916 -20.5731C105.804 -14.2486 104.049 2.26536 106.228 11.9278C113.293 43.2574 159.427 94.4975 287.442 48.8206C311.816 38.2798 362.684 50.5775 344.668 90.9839C330.256 123.309 339.369 134.318 344.668 142.81C349.967 151.301 379.851 173.027 457 192" stroke="#F9BE7D" stroke-width="1.5"/>
<g clip-path="url(#clip0_455_3)">
<path d="M256.595 18C255.927 18.1292 255.34 18.9318 254.712 19.2311C254.051 19.544 253.342 19.7481 252.681 20.0609C251.682 20.5303 250.967 21.2581 249.907 21.6798C248.875 22.0947 247.977 22.4824 247.087 23.1694C245.366 24.4957 243.625 25.7676 242.046 27.2504C241.236 28.0122 240.716 28.8352 239.981 29.6583C239.34 30.3724 238.442 31.0594 237.956 31.8892C237.673 32.379 237.659 32.9231 237.315 33.3992C237.079 33.7257 236.667 33.9298 236.438 34.2767C235.959 34.9977 236.046 35.7527 235.776 36.5417C235.115 38.487 234.359 40.3507 234.042 42.4048C233.347 46.9144 233.442 51.3696 233.961 55.9064C234.447 60.1303 235.041 64.7623 237.457 68.4352C238.908 70.639 240.237 72.7816 241.911 74.8765C243.706 77.1279 245.717 79.4133 247.937 81.2566C250.548 83.4196 252.796 86.1743 255.772 87.868C258.187 89.2419 260.731 89.8745 263.397 90.5751C268.931 92.0238 274.896 92.051 280.544 91.2076C283.298 90.7927 285.943 89.8133 288.507 88.7454C289.533 88.3169 290.633 87.9496 291.632 87.4598C292.738 86.9157 293.683 86.1471 294.824 85.6574C297.374 84.5623 299.176 83.0727 301.295 81.3246C302.226 80.556 302.854 79.8214 303.623 78.9236C304.183 78.2706 305.088 77.5973 305 76.6042C303.576 76.8967 302.085 77.3796 300.782 77.9237C299.669 78.3931 298.677 78.4883 297.55 78.8148C295.39 79.4405 293.157 80.1683 290.869 80.3112C287.61 80.522 284.391 81.0186 281.098 80.7805C279.451 80.6649 277.879 80.3588 276.259 80.1139C274.606 79.8622 272.851 79.9031 271.232 79.5018C269.592 79.1004 268.236 78.1414 266.92 77.1755C265.341 76.0124 263.761 75.0058 262.527 73.4142C260.576 70.8907 258.532 68.5645 256.763 65.9934C254.442 62.6197 252.924 58.7291 251.345 54.8793C250.015 51.6348 249.637 48.0911 249.401 44.629C249.347 43.874 249.415 43.2414 249.286 42.5068C249.158 41.7314 249.205 40.922 249.192 40.1398C249.172 38.7318 249.388 37.4939 249.475 36.0791C249.691 32.6306 251.21 29.6379 252.485 26.5022C253.639 23.6659 255.535 21.3057 257.182 18.7346C257.087 18.7346 256.683 17.9864 256.595 18Z" fill="#F9BE7D"/>
<path d="M275.463 50.1452C275.463 49.3358 275.368 48.6352 275.247 47.8462C275.017 46.3362 274.802 44.8126 274.43 43.3298C274.032 41.7382 273.661 40.0786 273.033 38.5618C272.831 38.0721 272.683 37.5823 272.554 37.0654C272.5 36.8477 272.507 36.7185 272.325 36.5689C272.467 36.9838 272.622 37.3171 272.858 37.6843C273.27 38.3237 273.486 39.0379 273.897 39.6773C274.761 41.0308 275.517 42.4796 276.543 43.7243C277.13 44.4317 277.548 45.1799 278.02 45.9485C278.311 46.4178 278.533 47.0708 278.931 47.4585C278.898 46.7715 279.168 46.1186 279.269 45.4316C279.465 44.112 279.721 42.7857 279.964 41.4729C280.207 40.1398 280.531 38.7794 280.659 37.4327C280.72 36.7729 280.909 36.1131 281.003 35.4534C281.064 35.0589 281.219 34.7052 281.179 34.2971C281.185 35.3785 281.26 36.3988 281.374 37.4803C281.543 39.0447 281.894 40.6703 281.874 42.2415C281.86 43.323 282.049 44.3569 282.042 45.4316C282.042 46.0165 281.914 46.7851 282.076 47.3429C282.265 47.2817 282.427 46.9416 282.602 46.7851C282.845 46.5607 283.014 46.3702 283.23 46.1458C283.615 45.7581 284.04 45.4452 284.418 45.0439C284.816 44.6222 285.288 44.2413 285.713 43.8468C286.705 42.9217 287.832 42.2075 288.892 41.3845C289.607 40.8268 290.154 39.997 290.916 39.4868C291.119 39.7521 289.762 41.4049 289.546 41.7178C288.797 42.7789 287.961 43.8332 287.131 44.833C286.442 45.656 285.754 46.4587 285.079 47.2885C284.809 47.6218 284.586 47.955 284.256 48.2339C283.979 48.4652 283.743 48.6216 283.507 48.9005C283.797 49.0433 284.451 48.9209 284.715 48.8869C285.268 48.8189 285.801 48.7509 286.361 48.7441C286.901 48.7373 287.434 48.7781 287.974 48.7577C288.737 48.7305 289.486 48.574 290.255 48.5672C291.294 48.5536 292.333 48.5808 293.366 48.574C293.919 48.5672 294.351 48.6352 294.891 48.71C295.201 48.7577 295.559 48.71 295.843 48.8733C295.755 49.1386 294.905 49.3766 294.668 49.4582C294.182 49.6283 293.663 49.6963 293.163 49.7983C291.78 50.0772 290.363 50.2472 288.973 50.5057C288.338 50.6213 287.691 50.6758 287.07 50.839C286.543 50.9818 286.058 51.2199 285.531 51.3763C284.748 51.6076 283.932 51.7777 283.149 51.9341C284.519 52.8863 285.727 54.0086 286.901 55.2058C288.467 56.7974 290.309 58.1985 291.699 59.9466C290.849 59.9602 290.215 59.5861 289.438 59.28C288.055 58.7427 286.638 58.2666 285.255 57.736C283.986 57.2463 282.832 56.3757 281.718 55.5935C281.435 55.3962 281.28 55.0901 281.01 54.8861C280.848 54.7636 280.659 54.75 280.517 54.58C280.376 54.8861 280.538 55.3486 280.578 55.6819C280.639 56.1716 280.672 56.6545 280.672 57.1443C280.666 58.5862 280.592 60.0554 280.679 61.4974C280.753 62.7353 280.841 63.9529 280.834 65.1976C280.834 65.7009 280.983 66.4355 280.801 66.9116C280.355 66.762 280.085 64.7691 279.971 64.3269C279.552 62.6809 279.384 61.0077 279.012 59.3616C278.79 58.389 278.601 57.4027 278.365 56.4301C278.297 56.1444 278.149 55.8383 278.095 55.5526C278.054 55.3214 278.088 55.1105 278.047 54.8793C277.697 54.8112 277.339 55.1853 277.076 55.3758C276.583 55.7363 276.036 56.056 275.571 56.4437C274.687 57.1783 273.816 57.8993 272.858 58.5454C272.345 58.8855 271.799 59.1576 271.286 59.4977C270.881 59.7698 270.523 60.069 270.084 60.2867C269.599 60.5247 269.032 60.7084 268.58 61.0077C268.863 60.9669 269.092 60.4771 269.248 60.2663C269.653 59.7085 270.098 59.1984 270.53 58.6611C271.198 57.8244 272.001 57.0966 272.662 56.26C273.648 55.0017 274.775 53.825 275.955 52.7571C272.23 53.0088 268.721 51.6348 265.05 51.3423C265.334 50.8594 266.69 50.7778 267.156 50.6758C268.006 50.4921 268.802 50.2064 269.673 50.1452C270.456 50.0908 271.205 49.9752 271.994 49.9752C273.209 49.9684 274.424 49.9684 275.463 50.1452Z" fill="#6488E5"/>
<path d="M240.419 100.24C240.419 99.431 240.325 98.7304 240.203 97.9414C239.974 96.4314 239.758 94.9078 239.387 93.425C238.989 91.8334 238.618 90.1737 237.99 88.6569C237.788 88.1672 237.639 87.6775 237.511 87.1605C237.457 86.9429 237.464 86.8136 237.281 86.664C237.423 87.0789 237.578 87.4122 237.815 87.7795C238.226 88.4189 238.442 89.1331 238.854 89.7724C239.718 91.126 240.473 92.5748 241.499 93.8195C242.086 94.5269 242.505 95.2751 242.977 96.0437C243.267 96.513 243.49 97.166 243.888 97.5537C243.854 96.8667 244.124 96.2137 244.225 95.5267C244.421 94.2072 244.678 92.8808 244.92 91.5681C245.163 90.2349 245.487 88.8746 245.616 87.5278C245.676 86.8681 245.865 86.2083 245.96 85.5485C246.02 85.154 246.176 84.8003 246.135 84.3922C246.142 85.4737 246.216 86.494 246.331 87.5754C246.5 89.1399 246.85 90.7655 246.83 92.3367C246.817 93.4182 247.006 94.4521 246.999 95.5267C246.999 96.1117 246.871 96.8803 247.033 97.438C247.222 97.3768 247.384 97.0367 247.559 96.8803C247.802 96.6558 247.971 96.4654 248.187 96.2409C248.571 95.8532 248.996 95.5403 249.374 95.139C249.772 94.7173 250.245 94.3364 250.67 93.9419C251.662 93.0169 252.789 92.3027 253.848 91.4797C254.564 90.9219 255.11 90.0921 255.873 89.582C256.075 89.8472 254.719 91.5001 254.503 91.813C253.754 92.874 252.917 93.9283 252.087 94.9282C251.399 95.7512 250.71 96.5538 250.036 97.3836C249.766 97.7169 249.543 98.0502 249.212 98.3291C248.936 98.5603 248.699 98.7168 248.463 98.9957C248.753 99.1385 249.408 99.0161 249.671 98.982C250.225 98.914 250.758 98.846 251.318 98.8392C251.858 98.8324 252.391 98.8732 252.931 98.8528C253.693 98.8256 254.442 98.6692 255.212 98.6624C256.251 98.6488 257.29 98.676 258.322 98.6692C258.876 98.6624 259.308 98.7304 259.848 98.8052C260.158 98.8528 260.516 98.8052 260.799 98.9684C260.711 99.2337 259.861 99.4718 259.625 99.5534C259.139 99.7234 258.619 99.7915 258.12 99.8935C256.737 100.172 255.32 100.342 253.929 100.601C253.295 100.717 252.647 100.771 252.026 100.934C251.5 101.077 251.014 101.315 250.488 101.472C249.705 101.703 248.888 101.873 248.106 102.029C249.476 102.981 250.683 104.104 251.858 105.301C253.423 106.893 255.266 108.294 256.656 110.042C255.805 110.055 255.171 109.681 254.395 109.375C253.012 108.838 251.594 108.362 250.211 107.831C248.942 107.348 247.788 106.471 246.675 105.689C246.392 105.491 246.236 105.185 245.966 104.981C245.804 104.859 245.616 104.845 245.474 104.675C245.332 104.981 245.494 105.444 245.535 105.777C245.595 106.267 245.636 106.75 245.629 107.239C245.622 108.681 245.548 110.151 245.636 111.593C245.71 112.83 245.798 114.048 245.791 115.293C245.791 115.796 245.939 116.531 245.757 117.007C245.312 116.857 245.042 114.864 244.927 114.422C244.509 112.776 244.34 111.103 243.969 109.457C243.746 108.484 243.557 107.498 243.321 106.525C243.254 106.24 243.105 105.933 243.051 105.648C243.011 105.417 243.044 105.206 243.004 104.974C242.653 104.906 242.295 105.281 242.032 105.471C241.54 105.831 240.993 106.151 240.527 106.539C239.643 107.273 238.773 107.994 237.815 108.641C237.302 108.981 236.755 109.253 236.242 109.593C235.837 109.865 235.48 110.164 235.041 110.382C234.555 110.62 233.988 110.804 233.536 111.103C233.82 111.062 234.049 110.572 234.204 110.361C234.609 109.804 235.055 109.294 235.486 108.756C236.154 107.92 236.958 107.192 237.619 106.355C238.604 105.097 239.731 103.92 240.912 102.852C237.187 103.104 233.678 101.73 230.007 101.437C230.29 100.955 231.647 100.873 232.112 100.771C232.963 100.587 233.759 100.302 234.629 100.24C235.412 100.186 236.161 100.07 236.951 100.07C238.165 100.064 239.38 100.064 240.419 100.24Z" fill="#6488E5"/>
</g>
<defs>
<clipPath id="clip0_455_3">
<rect width="75" height="99" fill="white" transform="translate(230 18)"/>
</clipPath>
</defs>
</svg>
