<svg width="375" height="215" viewBox="0 0 375 215" fill="none" xmlns="http://www.w3.org/2000/svg">
<path d="M-84 150.069C-59.2 171.307 -19.6667 162.195 -3 154.985C52 109.756 170.6 41.1255 205 128.437C239.4 215.749 309 154.985 340 123.521C362 111.379 376.4 115.852 406 159.901" stroke="#6488E5" stroke-width="1.5"/>
<path d="M423 153.758C414.674 135.259 389.411 116.43 351.066 110.898C320.594 106.502 313.037 131.387 300.112 142.219C289.622 151.011 243.964 180.353 205.199 146.065C156.743 103.205 150.749 7.04437 23.3653 153.758C12.3754 161.451 -156.47 354.871 -153.973 1" stroke="#E56372" stroke-width="1.5"/>
<line x1="85.1362" y1="111.5" x2="85.1362" y2="119.136" stroke="#6488E5" stroke-linecap="round"/>
<line x1="94.5" y1="120.136" x2="86.8636" y2="120.136" stroke="#6488E5" stroke-linecap="round"/>
<line x1="84.1362" y1="120.136" x2="76.4999" y2="120.136" stroke="#6488E5" stroke-linecap="round"/>
<line x1="85.1362" y1="121.864" x2="85.1362" y2="129.5" stroke="#6488E5" stroke-linecap="round"/>
<line x1="314.136" y1="98.5" x2="314.136" y2="106.136" stroke="#6488E5" stroke-linecap="round"/>
<line x1="323.5" y1="107.136" x2="315.864" y2="107.136" stroke="#6488E5" stroke-linecap="round"/>
<line x1="313.136" y1="107.136" x2="305.5" y2="107.136" stroke="#6488E5" stroke-linecap="round"/>
<line x1="314.136" y1="108.864" x2="314.136" y2="116.5" stroke="#6488E5" stroke-linecap="round"/>
</svg>
